<mxfile host="Electron" modified="2024-06-04T12:32:12.488Z" agent="Mozilla/5.0 (Windows NT 10.0; Win64; x64) AppleWebKit/537.36 (KHTML, like Gecko) draw.io/24.4.13 Chrome/124.0.6367.207 Electron/30.0.6 Safari/537.36" etag="XobikBBH9OlZRqSbB7mK" version="24.4.13" type="device" pages="3">
  <diagram id="kgpKYQtTHZ0yAKxKKP6v" name="Page-1">
    <mxGraphModel dx="1500" dy="887" grid="1" gridSize="10" guides="1" tooltips="1" connect="1" arrows="1" fold="1" page="1" pageScale="1" pageWidth="850" pageHeight="1100" math="0" shadow="0">
      <root>
        <mxCell id="0" />
        <mxCell id="1" parent="0" />
        <mxCell id="TR3HpXv-k49Oe98Kgcgv-10" value=":IU cours" style="shape=umlLifeline;participant=umlBoundary;perimeter=lifelinePerimeter;whiteSpace=wrap;html=1;container=1;collapsible=0;recursiveResize=0;verticalAlign=top;spacingTop=36;outlineConnect=0;" parent="1" vertex="1">
          <mxGeometry x="430" y="15" width="50" height="875" as="geometry" />
        </mxCell>
        <mxCell id="uwunShh2eXxCLl3LTYza-4" value="" style="html=1;points=[[0,0,0,0,5],[0,1,0,0,-5],[1,0,0,0,5],[1,1,0,0,-5]];perimeter=orthogonalPerimeter;outlineConnect=0;targetShapes=umlLifeline;portConstraint=eastwest;newEdgeStyle={&quot;curved&quot;:0,&quot;rounded&quot;:0};" parent="TR3HpXv-k49Oe98Kgcgv-10" vertex="1">
          <mxGeometry x="20" y="226" width="10" height="210" as="geometry" />
        </mxCell>
        <mxCell id="uwunShh2eXxCLl3LTYza-19" value="6):Message d&#39;erreur affiché" style="html=1;verticalAlign=bottom;endArrow=open;dashed=1;endSize=8;curved=0;rounded=0;fontSize=12;" parent="TR3HpXv-k49Oe98Kgcgv-10" edge="1">
          <mxGeometry relative="1" as="geometry">
            <mxPoint x="30" y="436" as="sourcePoint" />
            <mxPoint x="-180.5" y="436" as="targetPoint" />
          </mxGeometry>
        </mxCell>
        <mxCell id="TR3HpXv-k49Oe98Kgcgv-70" value="" style="html=1;points=[];perimeter=orthogonalPerimeter;fontSize=115;" parent="TR3HpXv-k49Oe98Kgcgv-10" vertex="1">
          <mxGeometry x="20" y="805" width="10" height="45" as="geometry" />
        </mxCell>
        <mxCell id="h5Wv6Gw_NpzDMm18Z7D9-5" value="" style="html=1;points=[];perimeter=orthogonalPerimeter;" parent="TR3HpXv-k49Oe98Kgcgv-10" vertex="1">
          <mxGeometry x="20" y="115" width="10" height="80" as="geometry" />
        </mxCell>
        <mxCell id="TR3HpXv-k49Oe98Kgcgv-12" value="enseignant" style="shape=umlLifeline;participant=umlActor;perimeter=lifelinePerimeter;whiteSpace=wrap;html=1;container=1;collapsible=0;recursiveResize=0;verticalAlign=top;spacingTop=36;outlineConnect=0;" parent="1" vertex="1">
          <mxGeometry x="240" y="20" width="20" height="870" as="geometry" />
        </mxCell>
        <mxCell id="TR3HpXv-k49Oe98Kgcgv-25" value="" style="html=1;points=[];perimeter=orthogonalPerimeter;" parent="TR3HpXv-k49Oe98Kgcgv-12" vertex="1">
          <mxGeometry x="5" y="216" width="10" height="40" as="geometry" />
        </mxCell>
        <mxCell id="TR3HpXv-k49Oe98Kgcgv-13" value="controller" style="shape=umlLifeline;participant=umlControl;perimeter=lifelinePerimeter;whiteSpace=wrap;html=1;container=1;collapsible=0;recursiveResize=0;verticalAlign=top;spacingTop=36;outlineConnect=0;" parent="1" vertex="1">
          <mxGeometry x="640" y="20" width="40" height="870" as="geometry" />
        </mxCell>
        <mxCell id="uwunShh2eXxCLl3LTYza-26" value="" style="html=1;points=[[0,0,0,0,5],[0,1,0,0,-5],[1,0,0,0,5],[1,1,0,0,-5]];perimeter=orthogonalPerimeter;outlineConnect=0;targetShapes=umlLifeline;portConstraint=eastwest;newEdgeStyle={&quot;curved&quot;:0,&quot;rounded&quot;:0};" parent="TR3HpXv-k49Oe98Kgcgv-13" vertex="1">
          <mxGeometry x="15" y="570" width="10" height="50" as="geometry" />
        </mxCell>
        <mxCell id="TR3HpXv-k49Oe98Kgcgv-68" value="" style="html=1;points=[];perimeter=orthogonalPerimeter;fontSize=115;" parent="TR3HpXv-k49Oe98Kgcgv-13" vertex="1">
          <mxGeometry x="15" y="750" width="10" height="50" as="geometry" />
        </mxCell>
        <mxCell id="TR3HpXv-k49Oe98Kgcgv-14" value="cours" style="shape=umlLifeline;participant=umlEntity;perimeter=lifelinePerimeter;whiteSpace=wrap;html=1;container=1;collapsible=0;recursiveResize=0;verticalAlign=top;spacingTop=36;outlineConnect=0;" parent="1" vertex="1">
          <mxGeometry x="830" y="7.5" width="40" height="882.5" as="geometry" />
        </mxCell>
        <mxCell id="uwunShh2eXxCLl3LTYza-14" value="" style="html=1;points=[[0,0,0,0,5],[0,1,0,0,-5],[1,0,0,0,5],[1,1,0,0,-5]];perimeter=orthogonalPerimeter;outlineConnect=0;targetShapes=umlLifeline;portConstraint=eastwest;newEdgeStyle={&quot;curved&quot;:0,&quot;rounded&quot;:0};" parent="TR3HpXv-k49Oe98Kgcgv-14" vertex="1">
          <mxGeometry x="15" y="346" width="10" height="30" as="geometry" />
        </mxCell>
        <mxCell id="uwunShh2eXxCLl3LTYza-21" value="" style="html=1;points=[[0,0,0,0,5],[0,1,0,0,-5],[1,0,0,0,5],[1,1,0,0,-5]];perimeter=orthogonalPerimeter;outlineConnect=0;targetShapes=umlLifeline;portConstraint=eastwest;newEdgeStyle={&quot;curved&quot;:0,&quot;rounded&quot;:0};" parent="TR3HpXv-k49Oe98Kgcgv-14" vertex="1">
          <mxGeometry x="15" y="486" width="10" height="40" as="geometry" />
        </mxCell>
        <mxCell id="uwunShh2eXxCLl3LTYza-22" value="8):vérification des données" style="html=1;align=left;spacingLeft=2;endArrow=block;rounded=0;edgeStyle=orthogonalEdgeStyle;curved=0;rounded=0;fontSize=12;startSize=8;endSize=8;" parent="TR3HpXv-k49Oe98Kgcgv-14" target="uwunShh2eXxCLl3LTYza-21" edge="1">
          <mxGeometry relative="1" as="geometry">
            <mxPoint x="20" y="466" as="sourcePoint" />
            <Array as="points">
              <mxPoint x="50" y="496" />
            </Array>
          </mxGeometry>
        </mxCell>
        <mxCell id="TR3HpXv-k49Oe98Kgcgv-66" value="" style="html=1;points=[];perimeter=orthogonalPerimeter;fontSize=115;" parent="TR3HpXv-k49Oe98Kgcgv-14" vertex="1">
          <mxGeometry x="15" y="722.5" width="10" height="50" as="geometry" />
        </mxCell>
        <mxCell id="TR3HpXv-k49Oe98Kgcgv-15" value="Ref" style="shape=umlFrame;whiteSpace=wrap;html=1;" parent="1" vertex="1">
          <mxGeometry x="200" y="84" width="760" height="50" as="geometry" />
        </mxCell>
        <mxCell id="TR3HpXv-k49Oe98Kgcgv-16" value="&amp;nbsp;Sequence Diagramme : Gérer cours/ Diagramme seq Consulter cours" style="text;html=1;strokeColor=none;fillColor=none;align=center;verticalAlign=middle;whiteSpace=wrap;rounded=0;" parent="1" vertex="1">
          <mxGeometry x="340" y="69" width="460" height="80" as="geometry" />
        </mxCell>
        <mxCell id="TR3HpXv-k49Oe98Kgcgv-39" value="" style="html=1;verticalLabelPosition=bottom;verticalAlign=top;outlineConnect=0;shadow=0;dashed=0;shape=mxgraph.rack.hpe_aruba.switches.rj45_sfp_alt;" parent="1" vertex="1">
          <mxGeometry x="440" y="650" width="5" height="4" as="geometry" />
        </mxCell>
        <mxCell id="TR3HpXv-k49Oe98Kgcgv-42" value="[succés]" style="text;html=1;strokeColor=none;fillColor=none;align=center;verticalAlign=middle;whiteSpace=wrap;rounded=0;" parent="1" vertex="1">
          <mxGeometry x="190" y="580" width="60" height="30" as="geometry" />
        </mxCell>
        <mxCell id="TR3HpXv-k49Oe98Kgcgv-43" value="Données a modifier saisie" style="html=1;verticalAlign=bottom;endArrow=block;rounded=0;" parent="1" edge="1">
          <mxGeometry x="-0.1028" y="10" width="80" relative="1" as="geometry">
            <mxPoint x="260" y="246" as="sourcePoint" />
            <mxPoint x="450" y="246" as="targetPoint" />
            <mxPoint x="1" as="offset" />
          </mxGeometry>
        </mxCell>
        <mxCell id="TR3HpXv-k49Oe98Kgcgv-46" value="12):Message de succés affiché" style="html=1;verticalAlign=bottom;endArrow=open;dashed=1;endSize=8;exitX=-0.2;exitY=0.488;rounded=0;exitDx=0;exitDy=0;exitPerimeter=0;" parent="1" edge="1">
          <mxGeometry x="-0.0067" y="-10" relative="1" as="geometry">
            <mxPoint x="246.3888888888889" y="680" as="targetPoint" />
            <mxPoint x="445" y="680.28" as="sourcePoint" />
            <Array as="points">
              <mxPoint x="337" y="680" />
            </Array>
            <mxPoint as="offset" />
          </mxGeometry>
        </mxCell>
        <mxCell id="TR3HpXv-k49Oe98Kgcgv-67" value="9)résultat vérification des données" style="html=1;verticalAlign=bottom;endArrow=open;dashed=1;endSize=8;exitX=-0.2;exitY=0.488;rounded=0;exitDx=0;exitDy=0;exitPerimeter=0;" parent="1" edge="1">
          <mxGeometry x="-0.0067" y="-10" relative="1" as="geometry">
            <mxPoint x="665" y="770" as="targetPoint" />
            <mxPoint x="850" y="770.28" as="sourcePoint" />
            <Array as="points">
              <mxPoint x="742" y="770" />
            </Array>
            <mxPoint as="offset" />
          </mxGeometry>
        </mxCell>
        <mxCell id="TR3HpXv-k49Oe98Kgcgv-71" value="10)Modification échouée" style="html=1;verticalAlign=bottom;endArrow=open;dashed=1;endSize=8;rounded=0;" parent="1" edge="1">
          <mxGeometry x="-0.0067" y="-10" relative="1" as="geometry">
            <mxPoint x="450" y="820" as="targetPoint" />
            <mxPoint x="655" y="820" as="sourcePoint" />
            <Array as="points">
              <mxPoint x="527" y="820" />
            </Array>
            <mxPoint as="offset" />
          </mxGeometry>
        </mxCell>
        <mxCell id="uwunShh2eXxCLl3LTYza-7" value="vérification des champs" style="html=1;align=left;spacingLeft=2;endArrow=block;rounded=0;edgeStyle=orthogonalEdgeStyle;curved=0;rounded=0;fontSize=12;startSize=8;endSize=8;" parent="1" edge="1">
          <mxGeometry x="0.0588" y="10" relative="1" as="geometry">
            <mxPoint x="460" y="251" as="sourcePoint" />
            <Array as="points">
              <mxPoint x="490" y="281" />
            </Array>
            <mxPoint x="465" y="281" as="targetPoint" />
            <mxPoint as="offset" />
          </mxGeometry>
        </mxCell>
        <mxCell id="uwunShh2eXxCLl3LTYza-8" value="6)soumettre les données" style="html=1;verticalAlign=bottom;endArrow=block;rounded=0;" parent="1" edge="1">
          <mxGeometry x="-0.1028" y="10" width="80" relative="1" as="geometry">
            <mxPoint x="460" y="326" as="sourcePoint" />
            <mxPoint x="659.5" y="326" as="targetPoint" />
            <mxPoint x="1" as="offset" />
          </mxGeometry>
        </mxCell>
        <mxCell id="uwunShh2eXxCLl3LTYza-9" value="Par" style="shape=umlFrame;whiteSpace=wrap;html=1;pointerEvents=0;" parent="1" vertex="1">
          <mxGeometry x="330" y="346" width="630" height="70" as="geometry" />
        </mxCell>
        <mxCell id="uwunShh2eXxCLl3LTYza-10" value="" style="html=1;points=[[0,0,0,0,5],[0,1,0,0,-5],[1,0,0,0,5],[1,1,0,0,-5]];perimeter=orthogonalPerimeter;outlineConnect=0;targetShapes=umlLifeline;portConstraint=eastwest;newEdgeStyle={&quot;curved&quot;:0,&quot;rounded&quot;:0};" parent="1" vertex="1">
          <mxGeometry x="655" y="326" width="10" height="70" as="geometry" />
        </mxCell>
        <mxCell id="uwunShh2eXxCLl3LTYza-11" value="7)Envoyer requete modifier cours(données)" style="html=1;verticalAlign=bottom;endArrow=block;rounded=0;" parent="1" target="uwunShh2eXxCLl3LTYza-14" edge="1">
          <mxGeometry x="0.3889" y="10" width="80" relative="1" as="geometry">
            <mxPoint x="665" y="376" as="sourcePoint" />
            <mxPoint x="810" y="386" as="targetPoint" />
            <mxPoint as="offset" />
          </mxGeometry>
        </mxCell>
        <mxCell id="uwunShh2eXxCLl3LTYza-20" value="Loop" style="shape=umlFrame;whiteSpace=wrap;html=1;pointerEvents=0;" parent="1" vertex="1">
          <mxGeometry x="210" y="200" width="780" height="260" as="geometry" />
        </mxCell>
        <mxCell id="uwunShh2eXxCLl3LTYza-23" value="" style="html=1;points=[[0,0,0,0,5],[0,1,0,0,-5],[1,0,0,0,5],[1,1,0,0,-5]];perimeter=orthogonalPerimeter;outlineConnect=0;targetShapes=umlLifeline;portConstraint=eastwest;newEdgeStyle={&quot;curved&quot;:0,&quot;rounded&quot;:0};" parent="1" vertex="1">
          <mxGeometry x="850" y="560" width="10" height="40" as="geometry" />
        </mxCell>
        <mxCell id="uwunShh2eXxCLl3LTYza-24" value="9):Exécution requete Modifier cours(données)" style="html=1;align=left;spacingLeft=2;endArrow=block;rounded=0;edgeStyle=orthogonalEdgeStyle;curved=0;rounded=0;fontSize=12;startSize=8;endSize=8;" parent="1" target="uwunShh2eXxCLl3LTYza-23" edge="1">
          <mxGeometry relative="1" as="geometry">
            <mxPoint x="855" y="540" as="sourcePoint" />
            <Array as="points">
              <mxPoint x="885" y="570" />
            </Array>
          </mxGeometry>
        </mxCell>
        <mxCell id="uwunShh2eXxCLl3LTYza-25" value="10):réponse requete" style="html=1;verticalAlign=bottom;endArrow=open;dashed=1;endSize=8;curved=0;rounded=0;fontSize=12;" parent="1" target="TR3HpXv-k49Oe98Kgcgv-13" edge="1">
          <mxGeometry relative="1" as="geometry">
            <mxPoint x="850" y="590" as="sourcePoint" />
            <mxPoint x="770" y="590" as="targetPoint" />
          </mxGeometry>
        </mxCell>
        <mxCell id="uwunShh2eXxCLl3LTYza-27" value="11):Modification réussie" style="html=1;verticalAlign=bottom;endArrow=open;dashed=1;endSize=8;curved=0;rounded=0;fontSize=12;" parent="1" target="TR3HpXv-k49Oe98Kgcgv-10" edge="1">
          <mxGeometry x="-0.0544" y="-10" relative="1" as="geometry">
            <mxPoint x="655" y="630" as="sourcePoint" />
            <mxPoint x="575" y="630" as="targetPoint" />
            <mxPoint x="-1" as="offset" />
          </mxGeometry>
        </mxCell>
        <mxCell id="uwunShh2eXxCLl3LTYza-28" value="" style="html=1;points=[[0,0,0,0,5],[0,1,0,0,-5],[1,0,0,0,5],[1,1,0,0,-5]];perimeter=orthogonalPerimeter;outlineConnect=0;targetShapes=umlLifeline;portConstraint=eastwest;newEdgeStyle={&quot;curved&quot;:0,&quot;rounded&quot;:0};" parent="1" vertex="1">
          <mxGeometry x="445" y="630" width="10" height="60" as="geometry" />
        </mxCell>
        <mxCell id="uwunShh2eXxCLl3LTYza-30" value="" style="html=1;points=[[0,0,0,0,5],[0,1,0,0,-5],[1,0,0,0,5],[1,1,0,0,-5]];perimeter=orthogonalPerimeter;outlineConnect=0;targetShapes=umlLifeline;portConstraint=eastwest;newEdgeStyle={&quot;curved&quot;:0,&quot;rounded&quot;:0};" parent="1" vertex="1">
          <mxGeometry x="245" y="680" width="10" height="40" as="geometry" />
        </mxCell>
        <mxCell id="uwunShh2eXxCLl3LTYza-32" value="[Echec]" style="text;html=1;strokeColor=none;fillColor=none;align=center;verticalAlign=middle;whiteSpace=wrap;rounded=0;" parent="1" vertex="1">
          <mxGeometry x="190" y="730" width="60" height="30" as="geometry" />
        </mxCell>
        <mxCell id="uwunShh2eXxCLl3LTYza-33" value="11)Message d&#39;erreur affiché" style="html=1;verticalAlign=bottom;endArrow=open;dashed=1;endSize=8;rounded=0;" parent="1" edge="1">
          <mxGeometry x="-0.0067" y="-10" relative="1" as="geometry">
            <mxPoint x="245" y="860" as="targetPoint" />
            <mxPoint x="450" y="860" as="sourcePoint" />
            <Array as="points">
              <mxPoint x="322" y="860" />
            </Array>
            <mxPoint as="offset" />
          </mxGeometry>
        </mxCell>
        <mxCell id="uwunShh2eXxCLl3LTYza-35" value="Alt" style="shape=umlFrame;whiteSpace=wrap;html=1;pointerEvents=0;" parent="1" vertex="1">
          <mxGeometry x="189" y="526" width="960" height="370" as="geometry" />
        </mxCell>
        <mxCell id="h5Wv6Gw_NpzDMm18Z7D9-6" value="clik button modifier" style="html=1;verticalAlign=bottom;endArrow=block;entryX=0;entryY=0;rounded=0;" parent="1" source="TR3HpXv-k49Oe98Kgcgv-12" edge="1">
          <mxGeometry relative="1" as="geometry">
            <mxPoint x="280" y="151" as="sourcePoint" />
            <mxPoint x="460" y="151.0000000000001" as="targetPoint" />
          </mxGeometry>
        </mxCell>
        <mxCell id="h5Wv6Gw_NpzDMm18Z7D9-7" value="interface modification fournie" style="html=1;verticalAlign=bottom;endArrow=open;dashed=1;endSize=8;exitX=0;exitY=0.95;rounded=0;" parent="1" edge="1">
          <mxGeometry relative="1" as="geometry">
            <mxPoint x="249.5" y="190" as="targetPoint" />
            <mxPoint x="460" y="190" as="sourcePoint" />
          </mxGeometry>
        </mxCell>
        <mxCell id="h5Wv6Gw_NpzDMm18Z7D9-8" value="clik button modifier&amp;nbsp;" style="html=1;verticalAlign=bottom;endArrow=block;rounded=0;" parent="1" edge="1">
          <mxGeometry x="0.2105" y="10" width="80" relative="1" as="geometry">
            <mxPoint x="255" y="280" as="sourcePoint" />
            <mxPoint x="445" y="280" as="targetPoint" />
            <mxPoint as="offset" />
          </mxGeometry>
        </mxCell>
        <mxCell id="uwunShh2eXxCLl3LTYza-31" value="" style="endArrow=none;dashed=1;html=1;rounded=0;fontSize=12;startSize=8;endSize=8;curved=1;entryX=1.006;entryY=0.546;entryDx=0;entryDy=0;entryPerimeter=0;exitX=0.003;exitY=0.549;exitDx=0;exitDy=0;exitPerimeter=0;" parent="1" source="uwunShh2eXxCLl3LTYza-35" target="uwunShh2eXxCLl3LTYza-35" edge="1">
          <mxGeometry width="50" height="50" relative="1" as="geometry">
            <mxPoint x="234" y="730" as="sourcePoint" />
            <mxPoint x="1104" y="721.4705882352941" as="targetPoint" />
          </mxGeometry>
        </mxCell>
      </root>
    </mxGraphModel>
  </diagram>
  <diagram id="91-CTFUeDaUW-0zkBQth" name="global CU">
    <mxGraphModel dx="2625" dy="1553" grid="1" gridSize="10" guides="1" tooltips="1" connect="1" arrows="1" fold="1" page="1" pageScale="1" pageWidth="2339" pageHeight="3300" math="0" shadow="0">
      <root>
        <mxCell id="0" />
        <mxCell id="1" parent="0" />
        <mxCell id="E5yys0Y9EU7163zA3vUe-1" value="Administrateur" style="shape=umlActor;verticalLabelPosition=bottom;verticalAlign=top;html=1;fontSize=16;fontStyle=1" vertex="1" parent="1">
          <mxGeometry x="130" y="145" width="30" height="60" as="geometry" />
        </mxCell>
        <mxCell id="E5yys0Y9EU7163zA3vUe-4" value="Enseignant" style="shape=umlActor;verticalLabelPosition=bottom;verticalAlign=top;html=1;fontSize=16;fontStyle=1" vertex="1" parent="1">
          <mxGeometry x="130" y="355" width="30" height="60" as="geometry" />
        </mxCell>
        <mxCell id="E5yys0Y9EU7163zA3vUe-5" value="Eléve" style="shape=umlActor;verticalLabelPosition=bottom;verticalAlign=top;html=1;fontSize=16;fontStyle=1" vertex="1" parent="1">
          <mxGeometry x="120" y="745" width="30" height="60" as="geometry" />
        </mxCell>
        <mxCell id="E5yys0Y9EU7163zA3vUe-6" value="Parent" style="shape=umlActor;verticalLabelPosition=bottom;verticalAlign=top;html=1;fontSize=16;fontStyle=1" vertex="1" parent="1">
          <mxGeometry x="120" y="995" width="30" height="60" as="geometry" />
        </mxCell>
        <mxCell id="E5yys0Y9EU7163zA3vUe-7" value="Visiteur" style="shape=umlActor;verticalLabelPosition=bottom;verticalAlign=top;html=1;fontSize=16;fontStyle=1" vertex="1" parent="1">
          <mxGeometry x="140" y="1225" width="30" height="60" as="geometry" />
        </mxCell>
        <mxCell id="E5yys0Y9EU7163zA3vUe-12" value="S&#39;authentifier" style="ellipse;whiteSpace=wrap;html=1;fontSize=16;fontStyle=1" vertex="1" parent="1">
          <mxGeometry x="1160" y="775" width="140" height="70" as="geometry" />
        </mxCell>
        <mxCell id="E5yys0Y9EU7163zA3vUe-13" value="Gérer profil" style="ellipse;whiteSpace=wrap;html=1;fontSize=16;fontStyle=1" vertex="1" parent="1">
          <mxGeometry x="405" y="545" width="140" height="60" as="geometry" />
        </mxCell>
        <mxCell id="E5yys0Y9EU7163zA3vUe-14" value="Inscrire" style="ellipse;whiteSpace=wrap;html=1;fontSize=16;fontStyle=1" vertex="1" parent="1">
          <mxGeometry x="410" y="1445" width="140" height="70" as="geometry" />
        </mxCell>
        <mxCell id="E5yys0Y9EU7163zA3vUe-15" value="Consulter accueil" style="ellipse;whiteSpace=wrap;html=1;fontSize=16;fontStyle=1" vertex="1" parent="1">
          <mxGeometry x="410" y="1345" width="140" height="70" as="geometry" />
        </mxCell>
        <mxCell id="E5yys0Y9EU7163zA3vUe-16" value="Gérer les utilisateurs" style="ellipse;whiteSpace=wrap;html=1;fontSize=16;fontStyle=1" vertex="1" parent="1">
          <mxGeometry x="410" y="195" width="140" height="70" as="geometry" />
        </mxCell>
        <mxCell id="E5yys0Y9EU7163zA3vUe-17" value="Gérer contenus educatifs" style="ellipse;whiteSpace=wrap;html=1;fontSize=16;fontStyle=1" vertex="1" parent="1">
          <mxGeometry x="415" y="285" width="140" height="70" as="geometry" />
        </mxCell>
        <mxCell id="E5yys0Y9EU7163zA3vUe-18" value="Consulter contenus educatifs" style="ellipse;whiteSpace=wrap;html=1;fontSize=16;fontStyle=1" vertex="1" parent="1">
          <mxGeometry x="410" y="875" width="140" height="70" as="geometry" />
        </mxCell>
        <mxCell id="E5yys0Y9EU7163zA3vUe-19" value="Gérer emplois" style="ellipse;whiteSpace=wrap;html=1;fontSize=16;fontStyle=1" vertex="1" parent="1">
          <mxGeometry x="410" y="955" width="140" height="70" as="geometry" />
        </mxCell>
        <mxCell id="E5yys0Y9EU7163zA3vUe-20" value="Gérer des quiz" style="ellipse;whiteSpace=wrap;html=1;fontSize=16;fontStyle=1" vertex="1" parent="1">
          <mxGeometry x="410" y="465" width="140" height="70" as="geometry" />
        </mxCell>
        <mxCell id="E5yys0Y9EU7163zA3vUe-21" value="Gérer des corrections" style="ellipse;whiteSpace=wrap;html=1;fontSize=16;fontStyle=1" vertex="1" parent="1">
          <mxGeometry x="410" y="375" width="140" height="70" as="geometry" />
        </mxCell>
        <mxCell id="E5yys0Y9EU7163zA3vUe-22" value="Gérer des documents" style="ellipse;whiteSpace=wrap;html=1;fontSize=16;fontStyle=1" vertex="1" parent="1">
          <mxGeometry x="405" y="615" width="140" height="70" as="geometry" />
        </mxCell>
        <mxCell id="E5yys0Y9EU7163zA3vUe-23" value="Consultre dashboard" style="ellipse;whiteSpace=wrap;html=1;fontSize=16;fontStyle=1" vertex="1" parent="1">
          <mxGeometry x="405" y="105" width="140" height="70" as="geometry" />
        </mxCell>
        <mxCell id="E5yys0Y9EU7163zA3vUe-24" value="Consulter parcours enfant" style="ellipse;whiteSpace=wrap;html=1;fontSize=16;fontStyle=1" vertex="1" parent="1">
          <mxGeometry x="410" y="1135" width="140" height="70" as="geometry" />
        </mxCell>
        <mxCell id="E5yys0Y9EU7163zA3vUe-25" value="Contacter" style="ellipse;whiteSpace=wrap;html=1;fontSize=16;fontStyle=1" vertex="1" parent="1">
          <mxGeometry x="420" y="1265" width="140" height="70" as="geometry" />
        </mxCell>
        <mxCell id="E5yys0Y9EU7163zA3vUe-26" value="Consulter notification" style="ellipse;whiteSpace=wrap;html=1;fontSize=16;fontStyle=1" vertex="1" parent="1">
          <mxGeometry x="410" y="1045" width="140" height="70" as="geometry" />
        </mxCell>
        <mxCell id="E5yys0Y9EU7163zA3vUe-27" value="Consulter corrections" style="ellipse;whiteSpace=wrap;html=1;fontSize=16;fontStyle=1" vertex="1" parent="1">
          <mxGeometry x="410" y="775" width="140" height="70" as="geometry" />
        </mxCell>
        <mxCell id="E5yys0Y9EU7163zA3vUe-28" value="Consulter quiz" style="ellipse;whiteSpace=wrap;html=1;fontSize=16;fontStyle=1" vertex="1" parent="1">
          <mxGeometry x="410" y="695" width="140" height="70" as="geometry" />
        </mxCell>
        <mxCell id="E5yys0Y9EU7163zA3vUe-30" value="" style="edgeStyle=none;html=1;endArrow=none;verticalAlign=bottom;rounded=0;entryX=0.031;entryY=0.337;entryDx=0;entryDy=0;entryPerimeter=0;exitX=0.5;exitY=0.5;exitDx=0;exitDy=0;exitPerimeter=0;fontSize=16;fontStyle=1" edge="1" parent="1" source="E5yys0Y9EU7163zA3vUe-7" target="E5yys0Y9EU7163zA3vUe-14">
          <mxGeometry width="160" relative="1" as="geometry">
            <mxPoint x="150" y="1265" as="sourcePoint" />
            <mxPoint x="310" y="1265" as="targetPoint" />
          </mxGeometry>
        </mxCell>
        <mxCell id="E5yys0Y9EU7163zA3vUe-31" value="" style="edgeStyle=none;html=1;endArrow=none;verticalAlign=bottom;rounded=0;entryX=0.077;entryY=0.234;entryDx=0;entryDy=0;entryPerimeter=0;exitX=0.5;exitY=0.5;exitDx=0;exitDy=0;exitPerimeter=0;fontSize=16;fontStyle=1" edge="1" parent="1" source="E5yys0Y9EU7163zA3vUe-7" target="E5yys0Y9EU7163zA3vUe-15">
          <mxGeometry width="160" relative="1" as="geometry">
            <mxPoint x="160" y="1275" as="sourcePoint" />
            <mxPoint x="320" y="1275" as="targetPoint" />
          </mxGeometry>
        </mxCell>
        <mxCell id="E5yys0Y9EU7163zA3vUe-32" value="" style="edgeStyle=none;html=1;endArrow=none;verticalAlign=bottom;rounded=0;entryX=0.074;entryY=0.189;entryDx=0;entryDy=0;entryPerimeter=0;exitX=0.5;exitY=0.5;exitDx=0;exitDy=0;exitPerimeter=0;fontSize=16;fontStyle=1" edge="1" parent="1" source="E5yys0Y9EU7163zA3vUe-7" target="E5yys0Y9EU7163zA3vUe-25">
          <mxGeometry width="160" relative="1" as="geometry">
            <mxPoint x="165" y="1265" as="sourcePoint" />
            <mxPoint x="431" y="1371" as="targetPoint" />
          </mxGeometry>
        </mxCell>
        <mxCell id="E5yys0Y9EU7163zA3vUe-33" value="" style="edgeStyle=none;html=1;endArrow=none;verticalAlign=bottom;rounded=0;entryX=0.031;entryY=0.366;entryDx=0;entryDy=0;entryPerimeter=0;fontSize=16;fontStyle=1" edge="1" parent="1" target="E5yys0Y9EU7163zA3vUe-24">
          <mxGeometry width="160" relative="1" as="geometry">
            <mxPoint x="140" y="1025" as="sourcePoint" />
            <mxPoint x="420" y="1208" as="targetPoint" />
          </mxGeometry>
        </mxCell>
        <mxCell id="E5yys0Y9EU7163zA3vUe-34" value="" style="edgeStyle=none;html=1;endArrow=none;verticalAlign=bottom;rounded=0;entryX=0.074;entryY=0.211;entryDx=0;entryDy=0;entryPerimeter=0;exitX=0.5;exitY=0.5;exitDx=0;exitDy=0;exitPerimeter=0;fontSize=16;fontStyle=1" edge="1" parent="1" source="E5yys0Y9EU7163zA3vUe-6" target="E5yys0Y9EU7163zA3vUe-25">
          <mxGeometry width="160" relative="1" as="geometry">
            <mxPoint x="154" y="1102" as="sourcePoint" />
            <mxPoint x="420" y="1208" as="targetPoint" />
          </mxGeometry>
        </mxCell>
        <mxCell id="E5yys0Y9EU7163zA3vUe-35" value="" style="edgeStyle=none;html=1;endArrow=none;verticalAlign=bottom;rounded=0;entryX=0;entryY=0.5;entryDx=0;entryDy=0;exitX=0.5;exitY=0.5;exitDx=0;exitDy=0;exitPerimeter=0;fontSize=16;fontStyle=1" edge="1" parent="1" source="E5yys0Y9EU7163zA3vUe-6" target="E5yys0Y9EU7163zA3vUe-26">
          <mxGeometry width="160" relative="1" as="geometry">
            <mxPoint x="154" y="1102" as="sourcePoint" />
            <mxPoint x="420" y="1208" as="targetPoint" />
          </mxGeometry>
        </mxCell>
        <mxCell id="E5yys0Y9EU7163zA3vUe-37" value="" style="edgeStyle=none;html=1;endArrow=none;verticalAlign=bottom;rounded=0;entryX=0;entryY=0.5;entryDx=0;entryDy=0;exitX=0.5;exitY=0.5;exitDx=0;exitDy=0;exitPerimeter=0;fontSize=16;fontStyle=1" edge="1" parent="1" source="E5yys0Y9EU7163zA3vUe-5" target="E5yys0Y9EU7163zA3vUe-18">
          <mxGeometry width="160" relative="1" as="geometry">
            <mxPoint x="140" y="867" as="sourcePoint" />
            <mxPoint x="396" y="845" as="targetPoint" />
          </mxGeometry>
        </mxCell>
        <mxCell id="E5yys0Y9EU7163zA3vUe-38" value="" style="edgeStyle=none;html=1;endArrow=none;verticalAlign=bottom;rounded=0;entryX=0.033;entryY=0.36;entryDx=0;entryDy=0;exitX=0.5;exitY=0.5;exitDx=0;exitDy=0;exitPerimeter=0;entryPerimeter=0;fontSize=16;fontStyle=1" edge="1" parent="1" source="E5yys0Y9EU7163zA3vUe-5" target="E5yys0Y9EU7163zA3vUe-27">
          <mxGeometry width="160" relative="1" as="geometry">
            <mxPoint x="155" y="865" as="sourcePoint" />
            <mxPoint x="415" y="970" as="targetPoint" />
          </mxGeometry>
        </mxCell>
        <mxCell id="E5yys0Y9EU7163zA3vUe-39" value="" style="edgeStyle=none;html=1;endArrow=none;verticalAlign=bottom;rounded=0;entryX=0;entryY=0.5;entryDx=0;entryDy=0;exitX=0.5;exitY=0.5;exitDx=0;exitDy=0;exitPerimeter=0;fontSize=16;fontStyle=1" edge="1" parent="1" source="E5yys0Y9EU7163zA3vUe-5" target="E5yys0Y9EU7163zA3vUe-28">
          <mxGeometry width="160" relative="1" as="geometry">
            <mxPoint x="150" y="855" as="sourcePoint" />
            <mxPoint x="420" y="860" as="targetPoint" />
          </mxGeometry>
        </mxCell>
        <mxCell id="E5yys0Y9EU7163zA3vUe-40" value="" style="edgeStyle=none;html=1;endArrow=none;verticalAlign=bottom;rounded=0;entryX=-0.003;entryY=0.331;entryDx=0;entryDy=0;entryPerimeter=0;exitX=0.5;exitY=0.5;exitDx=0;exitDy=0;exitPerimeter=0;fontSize=16;fontStyle=1" edge="1" parent="1" source="E5yys0Y9EU7163zA3vUe-5" target="E5yys0Y9EU7163zA3vUe-19">
          <mxGeometry width="160" relative="1" as="geometry">
            <mxPoint x="150" y="855" as="sourcePoint" />
            <mxPoint x="420" y="920" as="targetPoint" />
          </mxGeometry>
        </mxCell>
        <mxCell id="E5yys0Y9EU7163zA3vUe-41" value="" style="edgeStyle=none;html=1;endArrow=block;endFill=0;endSize=12;verticalAlign=bottom;rounded=0;exitX=0.5;exitY=0;exitDx=0;exitDy=0;exitPerimeter=0;fontSize=16;fontStyle=1" edge="1" parent="1" source="E5yys0Y9EU7163zA3vUe-6">
          <mxGeometry width="160" relative="1" as="geometry">
            <mxPoint x="140" y="995" as="sourcePoint" />
            <mxPoint x="135" y="825" as="targetPoint" />
          </mxGeometry>
        </mxCell>
        <mxCell id="E5yys0Y9EU7163zA3vUe-43" value="" style="edgeStyle=none;html=1;endArrow=none;verticalAlign=bottom;rounded=0;entryX=0;entryY=0.5;entryDx=0;entryDy=0;exitX=0.5;exitY=0.5;exitDx=0;exitDy=0;exitPerimeter=0;fontSize=16;fontStyle=1" edge="1" parent="1" target="E5yys0Y9EU7163zA3vUe-13">
          <mxGeometry width="160" relative="1" as="geometry">
            <mxPoint x="135" y="775" as="sourcePoint" />
            <mxPoint x="410" y="730" as="targetPoint" />
          </mxGeometry>
        </mxCell>
        <mxCell id="E5yys0Y9EU7163zA3vUe-44" value="" style="edgeStyle=none;html=1;endArrow=none;verticalAlign=bottom;rounded=0;entryX=0;entryY=0.5;entryDx=0;entryDy=0;fontSize=16;fontStyle=1" edge="1" parent="1" target="E5yys0Y9EU7163zA3vUe-22">
          <mxGeometry width="160" relative="1" as="geometry">
            <mxPoint x="140" y="775" as="sourcePoint" />
            <mxPoint x="415" y="585" as="targetPoint" />
          </mxGeometry>
        </mxCell>
        <mxCell id="E5yys0Y9EU7163zA3vUe-45" value="" style="edgeStyle=none;html=1;endArrow=none;verticalAlign=bottom;rounded=0;entryX=0.016;entryY=0.657;entryDx=0;entryDy=0;exitX=0.5;exitY=0.5;exitDx=0;exitDy=0;exitPerimeter=0;entryPerimeter=0;fontSize=16;fontStyle=1" edge="1" parent="1" source="E5yys0Y9EU7163zA3vUe-4" target="E5yys0Y9EU7163zA3vUe-21">
          <mxGeometry width="160" relative="1" as="geometry">
            <mxPoint x="145" y="785" as="sourcePoint" />
            <mxPoint x="415" y="585" as="targetPoint" />
          </mxGeometry>
        </mxCell>
        <mxCell id="E5yys0Y9EU7163zA3vUe-46" value="" style="edgeStyle=none;html=1;endArrow=none;verticalAlign=bottom;rounded=0;entryX=0;entryY=0.5;entryDx=0;entryDy=0;exitX=0.5;exitY=0.5;exitDx=0;exitDy=0;exitPerimeter=0;fontSize=16;fontStyle=1" edge="1" parent="1" source="E5yys0Y9EU7163zA3vUe-4" target="E5yys0Y9EU7163zA3vUe-17">
          <mxGeometry width="160" relative="1" as="geometry">
            <mxPoint x="145" y="630" as="sourcePoint" />
            <mxPoint x="417" y="521" as="targetPoint" />
          </mxGeometry>
        </mxCell>
        <mxCell id="E5yys0Y9EU7163zA3vUe-47" value="" style="edgeStyle=none;html=1;endArrow=none;verticalAlign=bottom;rounded=0;entryX=0;entryY=0.5;entryDx=0;entryDy=0;exitX=0.538;exitY=0.693;exitDx=0;exitDy=0;exitPerimeter=0;fontSize=16;fontStyle=1" edge="1" parent="1" source="E5yys0Y9EU7163zA3vUe-1" target="E5yys0Y9EU7163zA3vUe-23">
          <mxGeometry width="160" relative="1" as="geometry">
            <mxPoint x="150" y="285" as="sourcePoint" />
            <mxPoint x="425" y="75" as="targetPoint" />
          </mxGeometry>
        </mxCell>
        <mxCell id="E5yys0Y9EU7163zA3vUe-48" value="" style="edgeStyle=none;html=1;endArrow=none;verticalAlign=bottom;rounded=0;entryX=0.028;entryY=0.303;entryDx=0;entryDy=0;exitX=0.644;exitY=0.693;exitDx=0;exitDy=0;exitPerimeter=0;entryPerimeter=0;fontSize=16;fontStyle=1" edge="1" parent="1" source="E5yys0Y9EU7163zA3vUe-1" target="E5yys0Y9EU7163zA3vUe-16">
          <mxGeometry width="160" relative="1" as="geometry">
            <mxPoint x="166" y="307" as="sourcePoint" />
            <mxPoint x="410" y="240" as="targetPoint" />
          </mxGeometry>
        </mxCell>
        <mxCell id="E5yys0Y9EU7163zA3vUe-49" value="" style="edgeStyle=none;html=1;endArrow=block;endFill=0;endSize=12;verticalAlign=bottom;rounded=0;fontSize=16;fontStyle=1" edge="1" parent="1">
          <mxGeometry width="160" relative="1" as="geometry">
            <mxPoint x="140" y="445" as="sourcePoint" />
            <mxPoint x="140" y="735" as="targetPoint" />
          </mxGeometry>
        </mxCell>
        <mxCell id="E5yys0Y9EU7163zA3vUe-50" value="" style="edgeStyle=none;html=1;endArrow=none;verticalAlign=bottom;rounded=0;entryX=0;entryY=0.5;entryDx=0;entryDy=0;fontSize=16;fontStyle=1" edge="1" parent="1" target="E5yys0Y9EU7163zA3vUe-13">
          <mxGeometry width="160" relative="1" as="geometry">
            <mxPoint x="150" y="185" as="sourcePoint" />
            <mxPoint x="424" y="226" as="targetPoint" />
          </mxGeometry>
        </mxCell>
        <mxCell id="E5yys0Y9EU7163zA3vUe-51" value="&amp;lt;&amp;lt;include&amp;gt;&amp;gt;" style="html=1;verticalAlign=bottom;labelBackgroundColor=none;endArrow=open;endFill=0;dashed=1;rounded=0;exitX=0.98;exitY=0.229;exitDx=0;exitDy=0;exitPerimeter=0;entryX=0.69;entryY=1.029;entryDx=0;entryDy=0;entryPerimeter=0;fontSize=16;fontStyle=1" edge="1" parent="1" source="E5yys0Y9EU7163zA3vUe-24" target="E5yys0Y9EU7163zA3vUe-12">
          <mxGeometry width="160" relative="1" as="geometry">
            <mxPoint x="530" y="735" as="sourcePoint" />
            <mxPoint x="690" y="735" as="targetPoint" />
          </mxGeometry>
        </mxCell>
        <mxCell id="E5yys0Y9EU7163zA3vUe-53" value="&amp;lt;&amp;lt;include&amp;gt;&amp;gt;" style="html=1;verticalAlign=bottom;labelBackgroundColor=none;endArrow=open;endFill=0;dashed=1;rounded=0;exitX=1;exitY=0.5;exitDx=0;exitDy=0;entryX=0.296;entryY=0.978;entryDx=0;entryDy=0;entryPerimeter=0;fontSize=16;fontStyle=1" edge="1" parent="1" source="E5yys0Y9EU7163zA3vUe-26" target="E5yys0Y9EU7163zA3vUe-12">
          <mxGeometry width="160" relative="1" as="geometry">
            <mxPoint x="557" y="1161" as="sourcePoint" />
            <mxPoint x="805" y="843" as="targetPoint" />
          </mxGeometry>
        </mxCell>
        <mxCell id="E5yys0Y9EU7163zA3vUe-54" value="&amp;lt;&amp;lt;include&amp;gt;&amp;gt;" style="html=1;verticalAlign=bottom;labelBackgroundColor=none;endArrow=open;endFill=0;dashed=1;rounded=0;exitX=0.98;exitY=0.229;exitDx=0;exitDy=0;exitPerimeter=0;entryX=0;entryY=0.5;entryDx=0;entryDy=0;fontSize=16;fontStyle=1" edge="1" parent="1" target="E5yys0Y9EU7163zA3vUe-12">
          <mxGeometry width="160" relative="1" as="geometry">
            <mxPoint x="550" y="993" as="sourcePoint" />
            <mxPoint x="798" y="675" as="targetPoint" />
            <Array as="points">
              <mxPoint x="1160" y="810" />
            </Array>
          </mxGeometry>
        </mxCell>
        <mxCell id="E5yys0Y9EU7163zA3vUe-55" value="&amp;lt;&amp;lt;include&amp;gt;&amp;gt;" style="html=1;verticalAlign=bottom;labelBackgroundColor=none;endArrow=open;endFill=0;dashed=1;rounded=0;exitX=1.006;exitY=0.26;exitDx=0;exitDy=0;exitPerimeter=0;entryX=0;entryY=0;entryDx=0;entryDy=0;fontSize=16;fontStyle=1" edge="1" parent="1" source="E5yys0Y9EU7163zA3vUe-18" target="E5yys0Y9EU7163zA3vUe-12">
          <mxGeometry width="160" relative="1" as="geometry">
            <mxPoint x="577" y="1181" as="sourcePoint" />
            <mxPoint x="825" y="863" as="targetPoint" />
          </mxGeometry>
        </mxCell>
        <mxCell id="E5yys0Y9EU7163zA3vUe-56" value="&amp;lt;&amp;lt;include&amp;gt;&amp;gt;" style="html=1;verticalAlign=bottom;labelBackgroundColor=none;endArrow=open;endFill=0;dashed=1;rounded=0;exitX=1;exitY=0.5;exitDx=0;exitDy=0;entryX=0.264;entryY=0.025;entryDx=0;entryDy=0;entryPerimeter=0;fontSize=16;fontStyle=1" edge="1" parent="1" source="E5yys0Y9EU7163zA3vUe-27" target="E5yys0Y9EU7163zA3vUe-12">
          <mxGeometry width="160" relative="1" as="geometry">
            <mxPoint x="561" y="903" as="sourcePoint" />
            <mxPoint x="1070" y="676" as="targetPoint" />
          </mxGeometry>
        </mxCell>
        <mxCell id="E5yys0Y9EU7163zA3vUe-57" value="&amp;lt;&amp;lt;include&amp;gt;&amp;gt;" style="html=1;verticalAlign=bottom;labelBackgroundColor=none;endArrow=open;endFill=0;dashed=1;rounded=0;exitX=1;exitY=0.5;exitDx=0;exitDy=0;entryX=0.5;entryY=0;entryDx=0;entryDy=0;fontSize=16;fontStyle=1" edge="1" parent="1" source="E5yys0Y9EU7163zA3vUe-28" target="E5yys0Y9EU7163zA3vUe-12">
          <mxGeometry width="160" relative="1" as="geometry">
            <mxPoint x="571" y="913" as="sourcePoint" />
            <mxPoint x="1080" y="686" as="targetPoint" />
          </mxGeometry>
        </mxCell>
        <mxCell id="E5yys0Y9EU7163zA3vUe-58" value="&amp;lt;&amp;lt;include&amp;gt;&amp;gt;" style="html=1;verticalAlign=bottom;labelBackgroundColor=none;endArrow=open;endFill=0;dashed=1;rounded=0;exitX=1;exitY=0.5;exitDx=0;exitDy=0;entryX=0.5;entryY=0;entryDx=0;entryDy=0;fontSize=16;fontStyle=1" edge="1" parent="1" source="E5yys0Y9EU7163zA3vUe-22" target="E5yys0Y9EU7163zA3vUe-12">
          <mxGeometry width="160" relative="1" as="geometry">
            <mxPoint x="581" y="923" as="sourcePoint" />
            <mxPoint x="1090" y="696" as="targetPoint" />
          </mxGeometry>
        </mxCell>
        <mxCell id="E5yys0Y9EU7163zA3vUe-59" value="&amp;lt;&amp;lt;include&amp;gt;&amp;gt;" style="html=1;verticalAlign=bottom;labelBackgroundColor=none;endArrow=open;endFill=0;dashed=1;rounded=0;exitX=1;exitY=0.5;exitDx=0;exitDy=0;entryX=0.5;entryY=0;entryDx=0;entryDy=0;fontSize=16;fontStyle=1" edge="1" parent="1" source="E5yys0Y9EU7163zA3vUe-13" target="E5yys0Y9EU7163zA3vUe-12">
          <mxGeometry width="160" relative="1" as="geometry">
            <mxPoint x="591" y="933" as="sourcePoint" />
            <mxPoint x="1100" y="706" as="targetPoint" />
          </mxGeometry>
        </mxCell>
        <mxCell id="E5yys0Y9EU7163zA3vUe-60" value="&amp;lt;&amp;lt;include&amp;gt;&amp;gt;" style="html=1;verticalAlign=bottom;labelBackgroundColor=none;endArrow=open;endFill=0;dashed=1;rounded=0;exitX=1;exitY=0.5;exitDx=0;exitDy=0;entryX=0.709;entryY=0.051;entryDx=0;entryDy=0;entryPerimeter=0;fontSize=16;fontStyle=1" edge="1" parent="1" source="E5yys0Y9EU7163zA3vUe-20" target="E5yys0Y9EU7163zA3vUe-12">
          <mxGeometry width="160" relative="1" as="geometry">
            <mxPoint x="601" y="943" as="sourcePoint" />
            <mxPoint x="1110" y="716" as="targetPoint" />
          </mxGeometry>
        </mxCell>
        <mxCell id="E5yys0Y9EU7163zA3vUe-61" value="&amp;lt;&amp;lt;include&amp;gt;&amp;gt;" style="html=1;verticalAlign=bottom;labelBackgroundColor=none;endArrow=open;endFill=0;dashed=1;rounded=0;exitX=1;exitY=0.5;exitDx=0;exitDy=0;entryX=1;entryY=0;entryDx=0;entryDy=0;fontSize=16;fontStyle=1" edge="1" parent="1" source="E5yys0Y9EU7163zA3vUe-21" target="E5yys0Y9EU7163zA3vUe-12">
          <mxGeometry width="160" relative="1" as="geometry">
            <mxPoint x="611" y="953" as="sourcePoint" />
            <mxPoint x="1120" y="726" as="targetPoint" />
          </mxGeometry>
        </mxCell>
        <mxCell id="E5yys0Y9EU7163zA3vUe-62" value="&amp;lt;&amp;lt;include&amp;gt;&amp;gt;" style="html=1;verticalAlign=bottom;labelBackgroundColor=none;endArrow=open;endFill=0;dashed=1;rounded=0;exitX=1;exitY=0.5;exitDx=0;exitDy=0;fontSize=16;fontStyle=1" edge="1" parent="1" source="E5yys0Y9EU7163zA3vUe-17">
          <mxGeometry width="160" relative="1" as="geometry">
            <mxPoint x="560" y="420" as="sourcePoint" />
            <mxPoint x="1260" y="785" as="targetPoint" />
          </mxGeometry>
        </mxCell>
        <mxCell id="E5yys0Y9EU7163zA3vUe-63" value="&amp;lt;&amp;lt;include&amp;gt;&amp;gt;" style="html=1;verticalAlign=bottom;labelBackgroundColor=none;endArrow=open;endFill=0;dashed=1;rounded=0;exitX=1;exitY=0.5;exitDx=0;exitDy=0;fontSize=16;fontStyle=1" edge="1" parent="1" source="E5yys0Y9EU7163zA3vUe-16">
          <mxGeometry width="160" relative="1" as="geometry">
            <mxPoint x="565" y="330" as="sourcePoint" />
            <mxPoint x="1250" y="775" as="targetPoint" />
          </mxGeometry>
        </mxCell>
        <mxCell id="E5yys0Y9EU7163zA3vUe-64" value="&amp;lt;&amp;lt;include&amp;gt;&amp;gt;" style="html=1;verticalAlign=bottom;labelBackgroundColor=none;endArrow=open;endFill=0;dashed=1;rounded=0;exitX=1;exitY=0.5;exitDx=0;exitDy=0;entryX=1;entryY=0;entryDx=0;entryDy=0;fontSize=16;fontStyle=1" edge="1" parent="1" source="E5yys0Y9EU7163zA3vUe-23" target="E5yys0Y9EU7163zA3vUe-12">
          <mxGeometry width="160" relative="1" as="geometry">
            <mxPoint x="560" y="240" as="sourcePoint" />
            <mxPoint x="1170" y="685" as="targetPoint" />
          </mxGeometry>
        </mxCell>
        <mxCell id="E5yys0Y9EU7163zA3vUe-75" value="&lt;p style=&quot;font-size: 16px;&quot;&gt;&amp;lt;&amp;lt;actor&amp;gt;&amp;gt;&lt;br style=&quot;font-size: 16px;&quot;&gt;&lt;span style=&quot;font-size: 16px;&quot;&gt;ChatBot&lt;/span&gt;&lt;/p&gt;" style="shape=rect;html=1;overflow=fill;whiteSpace=wrap;align=center;fontSize=16;fontStyle=1" vertex="1" parent="1">
          <mxGeometry x="1360" y="1245" width="160" height="80" as="geometry" />
        </mxCell>
        <mxCell id="E5yys0Y9EU7163zA3vUe-86" value="" style="edgeStyle=none;html=1;endArrow=none;verticalAlign=bottom;rounded=0;entryX=0;entryY=0;entryDx=0;entryDy=0;exitX=0.5;exitY=0.5;exitDx=0;exitDy=0;exitPerimeter=0;fontSize=16;fontStyle=1" edge="1" parent="1" target="E5yys0Y9EU7163zA3vUe-25">
          <mxGeometry width="160" relative="1" as="geometry">
            <mxPoint x="145" y="785" as="sourcePoint" />
            <mxPoint x="420" y="988" as="targetPoint" />
          </mxGeometry>
        </mxCell>
        <mxCell id="E5yys0Y9EU7163zA3vUe-88" value="" style="endArrow=none;html=1;rounded=0;entryX=1;entryY=0.5;entryDx=0;entryDy=0;exitX=0;exitY=0.5;exitDx=0;exitDy=0;fontSize=16;fontStyle=1" edge="1" parent="1" source="E5yys0Y9EU7163zA3vUe-75" target="E5yys0Y9EU7163zA3vUe-25">
          <mxGeometry width="50" height="50" relative="1" as="geometry">
            <mxPoint x="1310" y="760.853658536585" as="sourcePoint" />
            <mxPoint x="960" y="795" as="targetPoint" />
          </mxGeometry>
        </mxCell>
        <mxCell id="BvLlKnjL_tMF6KItOPGT-2" value="" style="edgeStyle=none;html=1;endArrow=none;verticalAlign=bottom;rounded=0;entryX=0.039;entryY=0.214;entryDx=0;entryDy=0;fontSize=16;fontStyle=1;entryPerimeter=0;exitX=0.5;exitY=0.5;exitDx=0;exitDy=0;exitPerimeter=0;" edge="1" parent="1" source="E5yys0Y9EU7163zA3vUe-1" target="E5yys0Y9EU7163zA3vUe-15">
          <mxGeometry width="160" relative="1" as="geometry">
            <mxPoint x="170" y="205" as="sourcePoint" />
            <mxPoint x="450" y="1286" as="targetPoint" />
          </mxGeometry>
        </mxCell>
        <mxCell id="BvLlKnjL_tMF6KItOPGT-3" value="" style="edgeStyle=none;html=1;endArrow=none;verticalAlign=bottom;rounded=0;entryX=0.026;entryY=0.214;entryDx=0;entryDy=0;exitX=0.5;exitY=0.5;exitDx=0;exitDy=0;exitPerimeter=0;fontSize=16;fontStyle=1;entryPerimeter=0;" edge="1" parent="1" target="E5yys0Y9EU7163zA3vUe-15">
          <mxGeometry width="160" relative="1" as="geometry">
            <mxPoint x="155" y="795" as="sourcePoint" />
            <mxPoint x="450" y="1286" as="targetPoint" />
          </mxGeometry>
        </mxCell>
        <mxCell id="BvLlKnjL_tMF6KItOPGT-1" value="" style="rounded=0;whiteSpace=wrap;html=1;fillColor=none;fontSize=16;fontStyle=1" vertex="1" parent="1">
          <mxGeometry x="230" y="30" width="1080" height="1500" as="geometry" />
        </mxCell>
        <mxCell id="BvLlKnjL_tMF6KItOPGT-5" value="" style="edgeStyle=none;html=1;endArrow=none;verticalAlign=bottom;rounded=0;entryX=0;entryY=0;entryDx=0;entryDy=0;fontSize=16;fontStyle=1;exitX=0.5;exitY=0.5;exitDx=0;exitDy=0;exitPerimeter=0;" edge="1" parent="1" target="E5yys0Y9EU7163zA3vUe-25">
          <mxGeometry width="160" relative="1" as="geometry">
            <mxPoint x="155" y="185" as="sourcePoint" />
            <mxPoint x="425" y="1370" as="targetPoint" />
          </mxGeometry>
        </mxCell>
      </root>
    </mxGraphModel>
  </diagram>
  <diagram id="R7rWrOA9iSYNHx856OOY" name="Page-3">
    <mxGraphModel dx="1050" dy="621" grid="1" gridSize="10" guides="1" tooltips="1" connect="1" arrows="1" fold="1" page="1" pageScale="1" pageWidth="2339" pageHeight="3300" math="0" shadow="0">
      <root>
        <mxCell id="0" />
        <mxCell id="1" parent="0" />
      </root>
    </mxGraphModel>
  </diagram>
</mxfile>
